<?xml version="1.0" standalone="no"?>
<!DOCTYPE svg PUBLIC "-//W3C//DTD SVG 20010904//EN"
 "http://www.w3.org/TR/2001/REC-SVG-20010904/DTD/svg10.dtd">
<svg version="1.0" xmlns="http://www.w3.org/2000/svg"
 width="208.000000pt" height="145.000000pt" viewBox="0 0 208.000000 145.000000"
 preserveAspectRatio="xMidYMid meet">

<g transform="translate(0.000000,145.000000) scale(0.100000,-0.100000)"
fill="#000000" stroke="none">
<path d="M280 1015 c0 -346 3 -435 13 -430 25 13 -71 -68 -181 -152 -61 -47
-112 -89 -112 -92 0 -8 839 -276 844 -270 2 2 -1 86 -7 186 l-10 181 -136 37
c-143 39 -281 78 -343 97 -21 6 -38 15 -38 19 0 4 26 27 58 51 86 65 214 166
438 344 111 89 220 174 243 190 45 32 49 40 24 48 -10 3 -187 53 -393 112
-206 58 -380 109 -387 111 -10 4 -13 -81 -13 -432z"/>
</g>
</svg>
